<mxfile host="app.diagrams.net" modified="2021-02-10T22:06:22.842Z" agent="5.0 (Windows NT 10.0; Win64; x64) AppleWebKit/537.36 (KHTML, like Gecko) Chrome/88.0.4324.150 Safari/537.36" etag="mXppI3UtHMBahmH8Nq7X" version="14.3.0" type="github">
  <diagram id="miUswzDEBwyQNvGsRwTk" name="Page-1">
    <mxGraphModel dx="780" dy="1122" grid="1" gridSize="10" guides="1" tooltips="1" connect="1" arrows="1" fold="1" page="1" pageScale="1" pageWidth="850" pageHeight="1100" math="0" shadow="0">
      <root>
        <mxCell id="0" />
        <mxCell id="1" parent="0" />
        <mxCell id="sjvBAhGlldTQrIijZxSC-1" value="" style="shape=image;html=1;verticalAlign=top;verticalLabelPosition=bottom;labelBackgroundColor=#ffffff;imageAspect=0;aspect=fixed;image=https://cdn4.iconfinder.com/data/icons/logos-brands-5/24/jenkins-128.png" parent="1" vertex="1">
          <mxGeometry x="485" y="30" width="80" height="80" as="geometry" />
        </mxCell>
        <mxCell id="sjvBAhGlldTQrIijZxSC-2" value="" style="dashed=0;outlineConnect=0;html=1;align=center;labelPosition=center;verticalLabelPosition=bottom;verticalAlign=top;shape=mxgraph.weblogos.github" parent="1" vertex="1">
          <mxGeometry x="250" y="120" width="80" height="80" as="geometry" />
        </mxCell>
        <mxCell id="sjvBAhGlldTQrIijZxSC-3" value="" style="aspect=fixed;pointerEvents=1;shadow=0;dashed=0;html=1;strokeColor=none;labelPosition=center;verticalLabelPosition=bottom;verticalAlign=top;align=center;shape=mxgraph.mscae.enterprise.code_file;fillColor=#000000;" parent="1" vertex="1">
          <mxGeometry x="110" y="135" width="49" height="50" as="geometry" />
        </mxCell>
        <mxCell id="sjvBAhGlldTQrIijZxSC-10" value="" style="endArrow=classic;html=1;exitX=1;exitY=0.5;exitDx=0;exitDy=0;exitPerimeter=0;" parent="1" source="sjvBAhGlldTQrIijZxSC-3" target="sjvBAhGlldTQrIijZxSC-2" edge="1">
          <mxGeometry relative="1" as="geometry">
            <mxPoint x="130" y="260" as="sourcePoint" />
            <mxPoint x="230" y="260" as="targetPoint" />
          </mxGeometry>
        </mxCell>
        <mxCell id="sjvBAhGlldTQrIijZxSC-11" value="Push Code" style="edgeLabel;resizable=0;html=1;align=center;verticalAlign=middle;" parent="sjvBAhGlldTQrIijZxSC-10" connectable="0" vertex="1">
          <mxGeometry relative="1" as="geometry" />
        </mxCell>
        <mxCell id="sjvBAhGlldTQrIijZxSC-13" value="" style="rounded=1;whiteSpace=wrap;html=1;" parent="1" vertex="1">
          <mxGeometry x="425" y="115" width="200" height="395" as="geometry" />
        </mxCell>
        <mxCell id="sjvBAhGlldTQrIijZxSC-14" value="" style="endArrow=classic;html=1;entryX=-0.005;entryY=0.196;entryDx=0;entryDy=0;entryPerimeter=0;" parent="1" source="sjvBAhGlldTQrIijZxSC-2" target="sjvBAhGlldTQrIijZxSC-13" edge="1">
          <mxGeometry relative="1" as="geometry">
            <mxPoint x="310" y="180" as="sourcePoint" />
            <mxPoint x="410" y="180" as="targetPoint" />
          </mxGeometry>
        </mxCell>
        <mxCell id="sjvBAhGlldTQrIijZxSC-15" value="Clone Code" style="edgeLabel;resizable=0;html=1;align=center;verticalAlign=middle;" parent="sjvBAhGlldTQrIijZxSC-14" connectable="0" vertex="1">
          <mxGeometry relative="1" as="geometry" />
        </mxCell>
        <mxCell id="sjvBAhGlldTQrIijZxSC-16" value="Unit Testing" style="shape=ext;rounded=1;html=1;whiteSpace=wrap;dashed=1;dashPattern=1 4;" parent="1" vertex="1">
          <mxGeometry x="467.5" y="135" width="115" height="40" as="geometry" />
        </mxCell>
        <mxCell id="sjvBAhGlldTQrIijZxSC-17" value="Deploy to Nexus" style="shape=ext;rounded=1;html=1;whiteSpace=wrap;dashed=1;dashPattern=1 4;" parent="1" vertex="1">
          <mxGeometry x="545" y="260" width="75" height="55" as="geometry" />
        </mxCell>
        <mxCell id="sjvBAhGlldTQrIijZxSC-20" value="" style="endArrow=classic;html=1;exitX=1;exitY=1;exitDx=0;exitDy=0;entryX=0.5;entryY=0;entryDx=0;entryDy=0;" parent="1" source="sjvBAhGlldTQrIijZxSC-16" target="sjvBAhGlldTQrIijZxSC-17" edge="1">
          <mxGeometry relative="1" as="geometry">
            <mxPoint x="260" y="350" as="sourcePoint" />
            <mxPoint x="360" y="350" as="targetPoint" />
          </mxGeometry>
        </mxCell>
        <mxCell id="sjvBAhGlldTQrIijZxSC-21" value="Greater than&lt;br&gt;80% Code &lt;br&gt;Coverage" style="edgeLabel;resizable=0;html=1;align=center;verticalAlign=middle;" parent="sjvBAhGlldTQrIijZxSC-20" connectable="0" vertex="1">
          <mxGeometry relative="1" as="geometry" />
        </mxCell>
        <mxCell id="sjvBAhGlldTQrIijZxSC-22" value="Send Notification" style="shape=ext;rounded=1;html=1;whiteSpace=wrap;dashed=1;dashPattern=1 4;" parent="1" vertex="1">
          <mxGeometry x="430" y="260" width="75" height="55" as="geometry" />
        </mxCell>
        <mxCell id="sjvBAhGlldTQrIijZxSC-23" value="" style="endArrow=classic;html=1;exitX=0;exitY=1;exitDx=0;exitDy=0;entryX=0.5;entryY=0;entryDx=0;entryDy=0;" parent="1" source="sjvBAhGlldTQrIijZxSC-16" target="sjvBAhGlldTQrIijZxSC-22" edge="1">
          <mxGeometry relative="1" as="geometry">
            <mxPoint x="477.5" y="175" as="sourcePoint" />
            <mxPoint x="255" y="350" as="targetPoint" />
          </mxGeometry>
        </mxCell>
        <mxCell id="sjvBAhGlldTQrIijZxSC-24" value="Less than&lt;br&gt;80% Code &lt;br&gt;Coverage" style="edgeLabel;resizable=0;html=1;align=center;verticalAlign=middle;" parent="sjvBAhGlldTQrIijZxSC-23" connectable="0" vertex="1">
          <mxGeometry relative="1" as="geometry" />
        </mxCell>
      </root>
    </mxGraphModel>
  </diagram>
</mxfile>
